<svg width="258" height="114" viewBox="0 0 258 114" fill="none" xmlns="http://www.w3.org/2000/svg">
<rect width="258" height="114" rx="10" fill="#262626"/>
<rect x="0.5" y="0.5" width="257" height="113" rx="9.5" stroke="#FFC34F" stroke-opacity="0.2"/>
<path d="M121.54 65V50.4H126.02C127.433 50.4 128.553 50.74 129.38 51.42C130.207 52.0867 130.62 53 130.62 54.16C130.62 54.8133 130.473 55.38 130.18 55.86C129.887 56.34 129.487 56.7133 128.98 56.98C128.487 57.2467 127.913 57.38 127.26 57.38V57.3C127.967 57.2867 128.593 57.42 129.14 57.7C129.7 57.9667 130.14 58.3667 130.46 58.9C130.793 59.4333 130.96 60.08 130.96 60.84C130.96 61.68 130.767 62.4133 130.38 63.04C129.993 63.6667 129.447 64.1533 128.74 64.5C128.047 64.8333 127.213 65 126.24 65H121.54ZM123.98 62.92H126.08C126.813 62.92 127.387 62.7267 127.8 62.34C128.227 61.94 128.44 61.4 128.44 60.72C128.44 60.04 128.227 59.4933 127.8 59.08C127.387 58.6533 126.813 58.44 126.08 58.44H123.98V62.92ZM123.98 56.42H125.98C126.647 56.42 127.167 56.2467 127.54 55.9C127.927 55.54 128.12 55.0533 128.12 54.44C128.12 53.8267 127.927 53.3467 127.54 53C127.167 52.6533 126.647 52.48 125.98 52.48H123.98V56.42ZM136.772 65.2C135.639 65.2 134.746 64.9 134.092 64.3C133.439 63.7 133.112 62.8933 133.112 61.88C133.112 60.8 133.472 59.9667 134.192 59.38C134.912 58.7933 135.932 58.5 137.252 58.5H139.992V57.56C139.992 57.0267 139.819 56.6133 139.472 56.32C139.126 56.0133 138.652 55.86 138.052 55.86C137.506 55.86 137.052 55.98 136.692 56.22C136.332 56.46 136.119 56.7867 136.052 57.2H133.612C133.732 56.16 134.199 55.3333 135.012 54.72C135.826 54.1067 136.866 53.8 138.132 53.8C139.479 53.8 140.539 54.14 141.312 54.82C142.099 55.4867 142.492 56.3933 142.492 57.54V65H140.072V63.08H139.672L140.072 62.54C140.072 63.3533 139.772 64 139.172 64.48C138.572 64.96 137.772 65.2 136.772 65.2ZM137.592 63.32C138.299 63.32 138.872 63.14 139.312 62.78C139.766 62.42 139.992 61.9533 139.992 61.38V60.04H137.292C136.786 60.04 136.379 60.1867 136.072 60.48C135.766 60.7733 135.612 61.16 135.612 61.64C135.612 62.16 135.786 62.5733 136.132 62.88C136.492 63.1733 136.979 63.32 137.592 63.32ZM150.044 65.2C149.111 65.2 148.291 65.0267 147.584 64.68C146.891 64.32 146.351 63.82 145.964 63.18C145.578 62.5267 145.384 61.76 145.384 60.88V58.12C145.384 57.2267 145.578 56.46 145.964 55.82C146.351 55.18 146.891 54.6867 147.584 54.34C148.291 53.98 149.111 53.8 150.044 53.8C151.431 53.8 152.538 54.16 153.364 54.88C154.191 55.5867 154.624 56.5533 154.664 57.78H152.164C152.124 57.2067 151.918 56.7667 151.544 56.46C151.184 56.14 150.684 55.98 150.044 55.98C149.378 55.98 148.851 56.1667 148.464 56.54C148.078 56.9 147.884 57.42 147.884 58.1V60.88C147.884 61.56 148.078 62.0867 148.464 62.46C148.851 62.8333 149.378 63.02 150.044 63.02C150.684 63.02 151.184 62.8667 151.544 62.56C151.918 62.24 152.124 61.7933 152.164 61.22H154.664C154.624 62.4467 154.191 63.42 153.364 64.14C152.538 64.8467 151.431 65.2 150.044 65.2ZM157.577 65V50.4H160.077V58.32H161.817L164.497 54H167.297L163.977 59.32L167.357 65H164.497L161.817 60.44H160.077V65H157.577ZM173.989 65.2C173.055 65.2 172.242 65.02 171.549 64.66C170.855 64.3 170.315 63.8 169.929 63.16C169.555 62.5067 169.369 61.7467 169.369 60.88V58.12C169.369 57.2533 169.555 56.5 169.929 55.86C170.315 55.2067 170.855 54.7 171.549 54.34C172.242 53.98 173.055 53.8 173.989 53.8C174.909 53.8 175.709 53.98 176.389 54.34C177.082 54.7 177.615 55.2067 177.989 55.86C178.375 56.5 178.569 57.2533 178.569 58.12V60.1H171.789V60.88C171.789 61.6533 171.975 62.24 172.349 62.64C172.722 63.0267 173.275 63.22 174.009 63.22C174.569 63.22 175.022 63.1267 175.369 62.94C175.715 62.74 175.935 62.4533 176.029 62.08H178.489C178.302 63.0267 177.795 63.7867 176.969 64.36C176.155 64.92 175.162 65.2 173.989 65.2ZM176.149 58.7V58.1C176.149 57.34 175.969 56.76 175.609 56.36C175.249 55.9467 174.709 55.74 173.989 55.74C173.269 55.74 172.722 55.9467 172.349 56.36C171.975 56.7733 171.789 57.36 171.789 58.12V58.54L176.329 58.5L176.149 58.7ZM181.501 65V54H183.941V56.1H184.621L183.941 56.68C183.941 55.7733 184.201 55.0667 184.721 54.56C185.254 54.0533 185.981 53.8 186.901 53.8C187.981 53.8 188.841 54.16 189.481 54.88C190.134 55.6 190.461 56.5667 190.461 57.78V65H187.961V58.04C187.961 57.3733 187.788 56.86 187.441 56.5C187.094 56.14 186.608 55.96 185.981 55.96C185.368 55.96 184.881 56.1467 184.521 56.52C184.174 56.8933 184.001 57.4267 184.001 58.12V65H181.501ZM197.013 65.2C195.92 65.2 195.033 64.82 194.353 64.06C193.686 63.3 193.353 62.28 193.353 61V58.02C193.353 56.7267 193.686 55.7 194.353 54.94C195.02 54.18 195.906 53.8 197.013 53.8C197.92 53.8 198.64 54.06 199.173 54.58C199.706 55.0867 199.973 55.7867 199.973 56.68L199.413 56.1H199.993L199.913 53.48V50.4H202.413V65H199.973V62.9H199.413L199.973 62.32C199.973 63.2133 199.706 63.92 199.173 64.44C198.64 64.9467 197.92 65.2 197.013 65.2ZM197.893 63.04C198.533 63.04 199.026 62.8533 199.373 62.48C199.733 62.0933 199.913 61.56 199.913 60.88V58.12C199.913 57.44 199.733 56.9133 199.373 56.54C199.026 56.1533 198.533 55.96 197.893 55.96C197.253 55.96 196.753 56.1467 196.393 56.52C196.033 56.8933 195.853 57.4267 195.853 58.12V60.88C195.853 61.5733 196.033 62.1067 196.393 62.48C196.753 62.8533 197.253 63.04 197.893 63.04Z" fill="#FFC34F"/>
<g clip-path="url(#clip0_474_133)">
<path d="M79.0009 53.5848L73.8392 52.3154C73.529 51.3369 73.1299 50.3881 72.6483 49.4804C73.4233 48.1904 75.052 45.4752 75.052 45.4752C75.3636 44.9563 75.2812 44.292 74.8537 43.8646L71.1252 40.1361C70.6978 39.7073 70.0348 39.625 69.5146 39.9378L65.5029 42.3415C64.6003 41.8638 63.6566 41.4686 62.6847 41.1609L61.4153 35.9991C61.2684 35.412 60.7418 35 60.1367 35H54.8633C54.2582 35 53.7303 35.412 53.5848 35.9991C53.5848 35.9991 52.7055 39.6017 52.3166 41.1596C51.2802 41.4878 50.2786 41.914 49.3246 42.4341L45.1648 39.9378C44.6447 39.6288 43.9829 39.7087 43.5542 40.1361L39.8257 43.8646C39.3983 44.292 39.3159 44.9563 39.6274 45.4752L42.1998 49.7714C41.7852 50.589 41.4376 51.4399 41.1609 52.3116L35.9991 53.5848C35.412 53.7316 35 54.2582 35 54.8633V60.1367C35 60.7418 35.412 61.2697 35.9991 61.4152L41.1621 62.6846C41.475 63.6772 41.8817 64.6416 42.3749 65.5672L40.073 69.4038C39.7614 69.9226 39.8438 70.587 40.2712 71.0144L43.9997 74.7429C44.4259 75.1691 45.0902 75.2501 45.6103 74.9412C45.6103 74.9412 48.1917 73.3937 49.456 72.6366C50.3714 73.1246 51.3292 73.5276 52.3167 73.8404L53.5849 79.0009C53.7303 79.5881 54.2582 80 54.8633 80H60.1367C60.7418 80 61.2684 79.588 61.4152 79.0009L62.6834 73.8404C63.6992 73.5186 64.6776 73.1027 65.6084 72.598C66.9075 73.3769 69.5146 74.9412 69.5146 74.9412C70.0334 75.2514 70.6977 75.1716 71.1252 74.7429L74.8537 71.0144C75.2811 70.587 75.3635 69.9226 75.0519 69.4038L72.6817 65.4552C73.149 64.5681 73.5366 63.6399 73.8391 62.6846L79.0009 61.4152C79.5881 61.2684 80 60.7418 80 60.1367V54.8633C80 54.2582 79.5881 53.7316 79.0009 53.5848ZM57.5 66.7285C52.4119 66.7285 48.2715 62.5881 48.2715 57.5C48.2715 52.4119 52.4119 48.2715 57.5 48.2715C62.5881 48.2715 66.7285 52.4119 66.7285 57.5C66.7285 62.5881 62.5881 66.7285 57.5 66.7285Z" fill="#FFC34F"/>
</g>
<defs>
<clipPath id="clip0_474_133">
<rect width="45" height="45" fill="white" transform="translate(35 35)"/>
</clipPath>
</defs>
</svg>
