<svg width="33" height="33" viewBox="0 0 33 33" fill="none" xmlns="http://www.w3.org/2000/svg">
<g clip-path="url(#clip0_129_110)">
<path d="M3.57716 0.0648418C2.2172 0.251756 1.05705 1.09609 0.451187 2.35293C1.52592e-05 3.29394 0.0322418 2.25625 0.0322418 16.5004C0.0322418 30.7445 1.52592e-05 29.7068 0.451187 30.6479C0.863687 31.5051 1.45666 32.1045 2.2881 32.5234C3.22912 32.9875 2.73283 32.9617 9.97736 32.9811L16.5 33.0068V27.3285V21.6566H14.4375H12.375V19.0785V16.5004H14.4311H16.4936L16.5129 13.8707C16.5387 11.3699 16.5451 11.2217 16.6869 10.7641C17.3379 8.59199 18.9041 7.02578 21.0762 6.3748C21.5338 6.23301 21.682 6.22656 24.1893 6.20078L26.8125 6.18144V8.75312V11.3312L25.1238 11.3506C23.5705 11.3764 23.4094 11.3893 23.2096 11.5053C23.0871 11.5762 22.9324 11.718 22.8551 11.8146C22.7262 11.9887 22.7197 12.0789 22.7004 14.251L22.6811 16.5004H25.2656C27.7084 16.5004 27.8567 16.5068 27.818 16.61C27.7922 16.6744 27.3346 17.8346 26.7932 19.1881L25.8135 21.6566H24.2537H22.6875V27.335V33.0068L26.1229 32.9811C29.9127 32.9553 29.8225 32.9617 30.7119 32.5234C31.5434 32.1045 32.1363 31.5051 32.5488 30.6479C33 29.7068 32.9678 30.7445 32.9678 16.5004C32.9678 2.25625 33 3.29394 32.5488 2.35293C32.1363 1.4957 31.5434 0.896287 30.7119 0.477342C29.7387 -0.0060566 31.0084 0.0390606 16.7578 0.02617C9.71955 0.0197247 3.78986 0.0390606 3.57716 0.0648418Z" fill="#898989"/>
</g>
<defs>
<clipPath id="clip0_129_110">
<rect width="33" height="33" fill="white"/>
</clipPath>
</defs>
</svg>
