<svg width="258" height="114" viewBox="0 0 258 114" fill="none" xmlns="http://www.w3.org/2000/svg">
<rect width="258" height="114" rx="10" fill="#262626"/>
<rect x="0.5" y="0.5" width="257" height="113" rx="9.5" stroke="#FFC34F" stroke-opacity="0.2"/>
<path d="M118.6 61V46.4H127.68V48.72H121.06V52.62H127.16V54.94H121.1V61H118.6ZM130.872 61V50H133.232V52.1H133.852L133.112 53.38C133.112 52.1933 133.379 51.3 133.912 50.7C134.446 50.1 135.232 49.8 136.272 49.8C137.459 49.8 138.392 50.1667 139.072 50.9C139.752 51.6333 140.092 52.6467 140.092 53.94V54.74H137.472V54.12C137.472 53.4133 137.286 52.8667 136.912 52.48C136.552 52.0933 136.052 51.9 135.412 51.9C134.759 51.9 134.252 52.0933 133.892 52.48C133.546 52.8667 133.372 53.4133 133.372 54.12V61H130.872ZM146.984 61.18C146.051 61.18 145.238 61.0067 144.544 60.66C143.864 60.3 143.331 59.8 142.944 59.16C142.571 58.5067 142.384 57.74 142.384 56.86V54.14C142.384 53.26 142.571 52.5 142.944 51.86C143.331 51.2067 143.864 50.7067 144.544 50.36C145.238 50 146.051 49.82 146.984 49.82C147.931 49.82 148.744 50 149.424 50.36C150.104 50.7067 150.631 51.2067 151.004 51.86C151.391 52.5 151.584 53.2533 151.584 54.12V56.86C151.584 57.74 151.391 58.5067 151.004 59.16C150.631 59.8 150.104 60.3 149.424 60.66C148.744 61.0067 147.931 61.18 146.984 61.18ZM146.984 59C147.651 59 148.164 58.82 148.524 58.46C148.898 58.0867 149.084 57.5533 149.084 56.86V54.14C149.084 53.4333 148.898 52.9 148.524 52.54C148.164 52.18 147.651 52 146.984 52C146.331 52 145.818 52.18 145.444 52.54C145.071 52.9 144.884 53.4333 144.884 54.14V56.86C144.884 57.5533 145.071 58.0867 145.444 58.46C145.818 58.82 146.331 59 146.984 59ZM154.517 61V50H156.957V52.1H157.637L156.957 52.68C156.957 51.7733 157.217 51.0667 157.737 50.56C158.27 50.0533 158.997 49.8 159.917 49.8C160.997 49.8 161.857 50.16 162.497 50.88C163.15 51.6 163.477 52.5667 163.477 53.78V61H160.977V54.04C160.977 53.3733 160.803 52.86 160.457 52.5C160.11 52.14 159.623 51.96 158.997 51.96C158.383 51.96 157.897 52.1467 157.537 52.52C157.19 52.8933 157.017 53.4267 157.017 54.12V61H154.517ZM172.169 61C171.115 61 170.289 60.7067 169.689 60.12C169.102 59.5333 168.809 58.7267 168.809 57.7V52.26H165.829V50H168.809V46.9H171.329V50H175.549V52.26H171.329V57.7C171.329 58.3933 171.669 58.74 172.349 58.74H175.349V61H172.169ZM182.981 61.2C182.048 61.2 181.234 61.02 180.541 60.66C179.848 60.3 179.308 59.8 178.921 59.16C178.548 58.5067 178.361 57.7467 178.361 56.88V54.12C178.361 53.2533 178.548 52.5 178.921 51.86C179.308 51.2067 179.848 50.7 180.541 50.34C181.234 49.98 182.048 49.8 182.981 49.8C183.901 49.8 184.701 49.98 185.381 50.34C186.074 50.7 186.608 51.2067 186.981 51.86C187.368 52.5 187.561 53.2533 187.561 54.12V56.1H180.781V56.88C180.781 57.6533 180.968 58.24 181.341 58.64C181.714 59.0267 182.268 59.22 183.001 59.22C183.561 59.22 184.014 59.1267 184.361 58.94C184.708 58.74 184.928 58.4533 185.021 58.08H187.481C187.294 59.0267 186.788 59.7867 185.961 60.36C185.148 60.92 184.154 61.2 182.981 61.2ZM185.141 54.7V54.1C185.141 53.34 184.961 52.76 184.601 52.36C184.241 51.9467 183.701 51.74 182.981 51.74C182.261 51.74 181.714 51.9467 181.341 52.36C180.968 52.7733 180.781 53.36 180.781 54.12V54.54L185.321 54.5L185.141 54.7ZM190.493 61V50H192.933V52.1H193.613L192.933 52.68C192.933 51.7733 193.193 51.0667 193.713 50.56C194.246 50.0533 194.973 49.8 195.893 49.8C196.973 49.8 197.833 50.16 198.473 50.88C199.126 51.6 199.453 52.5667 199.453 53.78V61H196.953V54.04C196.953 53.3733 196.78 52.86 196.433 52.5C196.086 52.14 195.6 51.96 194.973 51.96C194.36 51.96 193.873 52.1467 193.513 52.52C193.166 52.8933 192.993 53.4267 192.993 54.12V61H190.493ZM206.005 61.2C204.912 61.2 204.025 60.82 203.345 60.06C202.679 59.3 202.345 58.28 202.345 57V54.02C202.345 52.7267 202.679 51.7 203.345 50.94C204.012 50.18 204.899 49.8 206.005 49.8C206.912 49.8 207.632 50.06 208.165 50.58C208.699 51.0867 208.965 51.7867 208.965 52.68L208.405 52.1H208.985L208.905 49.48V46.4H211.405V61H208.965V58.9H208.405L208.965 58.32C208.965 59.2133 208.699 59.92 208.165 60.44C207.632 60.9467 206.912 61.2 206.005 61.2ZM206.885 59.04C207.525 59.04 208.019 58.8533 208.365 58.48C208.725 58.0933 208.905 57.56 208.905 56.88V54.12C208.905 53.44 208.725 52.9133 208.365 52.54C208.019 52.1533 207.525 51.96 206.885 51.96C206.245 51.96 205.745 52.1467 205.385 52.52C205.025 52.8933 204.845 53.4267 204.845 54.12V56.88C204.845 57.5733 205.025 58.1067 205.385 58.48C205.745 58.8533 206.245 59.04 206.885 59.04Z" fill="#FFC34F"/>
<g clip-path="url(#clip0_474_274)">
<path d="M37.0033 41.4182C37.3996 42.9853 38.2127 44.4179 39.3554 45.5605L40.4015 46.5932L48.6074 38.3879L47.5613 37.3551C46.4177 36.2125 44.9859 35.3996 43.4187 35.0032L35.5477 33.0133C35.3974 32.9755 35.2383 33.0195 35.1285 33.1285C35.0195 33.2383 34.9755 33.3974 35.0133 33.5477L37.0033 41.4182Z" fill="#FFC34F"/>
<path d="M46.2712 52.3867L54.4763 44.1821L50.484 40.2402L42.2783 48.4454L46.2712 52.3867Z" fill="#FFC34F"/>
<path d="M60.6094 66.8164L68.8132 58.6126L73.7306 63.5301L65.5268 71.7339L60.6094 66.8164Z" fill="#FFC34F"/>
<path d="M75.6032 65.3955L67.3975 73.6007L70.098 76.3013C71.1941 77.3964 72.6514 78.0003 74.201 78.0003C75.7506 78.0003 77.2079 77.3964 78.304 76.3013C80.5656 74.039 80.5656 70.3582 78.304 68.0959L75.6032 65.3955Z" fill="#FFC34F"/>
<path d="M55.2987 57.1601C55.8136 56.6452 56.6484 56.6452 57.1632 57.1601L61.7045 61.7011L63.7031 59.7028L61.1108 57.1108C60.5959 56.596 60.5959 55.7613 61.1108 55.2463C61.6257 54.7316 62.4605 54.7314 62.9753 55.2463L65.5676 57.8383L67.6013 55.8047L63.06 51.2637C62.545 50.7489 62.545 49.9141 63.06 49.3992C63.5748 48.8845 64.4096 48.8843 64.9245 49.3992L69.4658 53.9404L71.4996 51.9068L68.9073 49.3148C68.3924 48.8 68.3924 47.9653 68.9073 47.4504C69.4222 46.9356 70.257 46.9354 70.7718 47.4504L73.3641 50.0423L75.3978 48.0087L70.8565 43.4676C70.3415 42.9528 70.3415 42.118 70.8565 41.6032C71.3714 41.0883 72.2062 41.0883 72.721 41.6032L77.2623 46.1443L79.1273 44.2764C79.6901 43.7137 79.9999 42.9655 79.9999 42.1697C79.9999 41.374 79.6899 40.6259 79.1273 40.0632L72.9362 33.8727C72.3735 33.3099 71.6253 33 70.8296 33C70.0338 33 69.2856 33.3098 68.7228 33.8726L35.8726 66.7236C35.3099 67.2862 35 68.0344 35 68.8301C35 69.6259 35.3099 70.3739 35.8726 70.9367L42.0638 77.1273C42.6264 77.69 43.3746 78 44.1704 78C44.9663 78 45.7144 77.6901 46.2771 77.1274L48.1451 75.2597L45.5529 72.6677C45.0381 72.1529 45.0381 71.3181 45.5529 70.8033C46.0678 70.2885 46.9026 70.2885 47.4175 70.8033L50.0096 73.3952L52.0433 71.3616L47.502 66.8207C46.9871 66.3059 46.9871 65.4711 47.502 64.9562C48.0169 64.4415 48.8516 64.4415 49.3665 64.9562L53.9078 69.4972L55.9416 67.4636L53.3494 64.8716C52.8345 64.3568 52.8345 63.5221 53.3494 63.0072C53.8643 62.4924 54.6991 62.4922 55.214 63.0072L57.8062 65.5992L59.8399 63.5655L55.2986 59.0245C54.7837 58.5097 54.7837 57.6749 55.2987 57.1601Z" fill="#FFC34F"/>
</g>
<defs>
<clipPath id="clip0_474_274">
<rect width="45" height="45" fill="white" transform="translate(35 33)"/>
</clipPath>
</defs>
</svg>
