<svg width="35" height="35" viewBox="0 0 35 35" fill="none" xmlns="http://www.w3.org/2000/svg">
<path d="M5.3125 0.4375H29.6875C32.3688 0.4375 34.5625 2.63125 34.5625 5.3125V29.6875C34.5625 32.3688 32.3688 34.5625 29.6875 34.5625H5.3125C2.63125 34.5625 0.4375 32.3688 0.4375 29.6875V5.3125C0.4375 2.63125 2.63125 0.4375 5.3125 0.4375Z" fill="#898989"/>
<path d="M23.9593 9.82129C23.228 9.82129 22.4968 10.4307 22.4968 11.2838C22.4968 12.1369 23.1062 12.7463 23.9593 12.7463C24.8124 12.7463 25.4218 12.1369 25.4218 11.2838C25.2999 10.4307 24.6905 9.82129 23.9593 9.82129Z" fill="#212121"/>
<path d="M17.4999 11.6494C14.2093 11.6494 11.528 14.3307 11.528 17.6213C11.528 20.9119 14.2093 23.5932 17.4999 23.5932C20.7905 23.5932 23.4718 20.9119 23.4718 17.6213C23.5937 14.3307 20.9124 11.6494 17.4999 11.6494ZM17.4999 21.5213C15.428 21.5213 13.5999 19.815 13.5999 17.6213C13.5999 15.5494 15.3062 13.7213 17.4999 13.7213C19.5718 13.7213 21.3999 15.4275 21.3999 17.6213C21.3999 19.815 19.6937 21.5213 17.4999 21.5213Z" fill="#212121"/>
<path d="M22.375 5.3125H12.625C8.60313 5.3125 5.3125 8.60313 5.3125 12.625V22.375C5.3125 26.3969 8.60313 29.6875 12.625 29.6875H22.375C26.3969 29.6875 29.6875 26.3969 29.6875 22.375V12.625C29.6875 8.60313 26.3969 5.3125 22.375 5.3125ZM27.3719 22.375C27.3719 25.1781 25.0563 27.3719 22.375 27.3719H12.625C9.82188 27.3719 7.62813 25.0563 7.62813 22.375V12.625C7.62813 9.82188 9.94375 7.62813 12.625 7.62813H22.375C25.1781 7.62813 27.3719 9.94375 27.3719 12.625V22.375Z" fill="#212121"/>
</svg>
