<svg width="33" height="33" viewBox="0 0 33 33" fill="none" xmlns="http://www.w3.org/2000/svg">
<g clip-path="url(#clip0_129_107)">
<path d="M3.68666 0.0708989C1.88842 0.373829 0.341542 1.95293 0.064394 3.77695C0.0192768 4.07988 -5.91296e-05 8.20488 0.0128315 16.79L0.0321674 29.3584L0.212636 29.874C0.721816 31.3113 1.68861 32.2781 3.12592 32.7873L3.64154 32.9678H16.4999H29.3583L29.874 32.7873C31.3628 32.2588 32.3876 31.1889 32.8517 29.6807C32.9613 29.3133 32.9677 28.7268 32.9677 16.4678V3.6416L32.7872 3.12598C32.2781 1.68867 31.3113 0.721875 29.874 0.212696L29.3583 0.032227L16.6933 0.0257817C9.54545 0.0193364 3.88002 0.0386724 3.68666 0.0708989ZM9.76459 6.28418C10.5831 6.50332 11.247 7.05762 11.6208 7.84395C11.8787 8.39824 11.9367 9.17813 11.7626 9.77109C11.4146 10.9699 10.3253 11.7949 9.10717 11.7949C7.98568 11.7949 6.99955 11.1826 6.54193 10.2029C5.53002 8.06953 7.48295 5.69121 9.76459 6.28418ZM22.4103 12.8326C24.6597 13.084 26.0068 14.373 26.4837 16.732C26.7029 17.8148 26.748 18.7881 26.748 22.6488V26.3742L26.5288 26.5934L26.3097 26.8125H24.5437C22.9066 26.8125 22.7712 26.8061 22.5779 26.6836C22.4619 26.6127 22.3523 26.4902 22.3329 26.4129C22.3201 26.3291 22.2943 24.5695 22.2814 22.4941C22.262 19.1684 22.2492 18.6785 22.1525 18.3369C21.9785 17.7311 21.74 17.2992 21.4242 17.0221C21.0374 16.6805 20.6636 16.5645 19.9804 16.5645C19.4841 16.5645 19.3745 16.5902 19.0265 16.7578C18.556 16.9963 18.2208 17.3508 17.9759 17.8793C17.5699 18.7559 17.5763 18.6979 17.5376 22.7648L17.499 26.4838L17.3507 26.632C17.2089 26.7803 17.1767 26.7803 15.4687 26.7996C13.5609 26.8189 13.432 26.7996 13.2837 26.4451C13.2322 26.3098 13.2128 24.5824 13.2257 19.8L13.2451 13.3289L13.4255 13.1742L13.606 13.0195H15.3785C16.4677 13.0195 17.2025 13.0453 17.2734 13.084C17.4861 13.2 17.557 13.4127 17.5956 14.0379L17.6279 14.6373L17.8792 14.315C18.7494 13.1678 20.4509 12.6135 22.4103 12.8326ZM11.0214 13.2C11.1439 13.3225 11.2148 13.4771 11.247 13.6705C11.2663 13.8252 11.2792 16.7385 11.2663 20.1416C11.247 25.9746 11.2406 26.342 11.131 26.4967C10.9247 26.7996 10.7829 26.8189 8.97182 26.7996L7.28314 26.7803L7.10912 26.5998L6.92865 26.4258L6.90932 20.0256C6.90287 16.5129 6.90932 13.5609 6.92865 13.4836C6.94799 13.3998 7.04467 13.258 7.1349 13.1742L7.30248 13.0195H9.06849H10.841L11.0214 13.2Z" fill="#898989"/>
</g>
<defs>
<clipPath id="clip0_129_107">
<rect width="33" height="33" fill="white"/>
</clipPath>
</defs>
</svg>
